<svg xmlns="http://www.w3.org/2000/svg" viewBox="0 0 330.6 88.2"><defs><style>.a{fill:#02a6d2;}.b{font-size:36px;fill:#211e1f;font-family:MyriadHebrew-Regular, Myriad Hebrew;}.c{letter-spacing:0em;}.d{letter-spacing:0em;}.e{letter-spacing:-0.01em;}</style></defs><title>Fichier 2</title><path class="a" d="M15.41,23.1c-.37,0-.48-.24-.26-.53l2.09-2.66a1.58,1.58,0,0,1,1.09-.53l35.74,0c.37,0,.5.26.3.57l-1.66,2.59a1.4,1.4,0,0,1-1,.57Z" transform="translate(0)"/><path class="a" d="M.37,32.3c-.37,0-.48-.24-.25-.53L2.21,29.1a1.54,1.54,0,0,1,1.08-.53l45.64,0a.46.46,0,0,1,.46.64l-.81,2.45a1,1,0,0,1-.88.63Z" transform="translate(0)"/><path class="a" d="M24.6,41.47c-.37,0-.52-.26-.34-.58l1.42-2.55a1.28,1.28,0,0,1,1-.59l20,0a.6.6,0,0,1,.61.67l-.23,2.39a.75.75,0,0,1-.73.67Z" transform="translate(0)"/><path class="a" d="M128.38,21.33c-6.28,1.56-10.59,2.85-16.77,4.4-1.53.38-1.64.53-2.93-1A13.07,13.07,0,0,0,104,21c-6.3-3.1-12.41-2.24-18,1.46a21.4,21.4,0,0,0-10.23,19A15.71,15.71,0,0,0,89.22,57.2c6.76.94,12.48-1.49,17-6.57,1-1.06,1.72-2.28,2.74-3.66H89.71c-2.09,0-2.57-1.28-1.86-3,1.26-3.06,3.7-8.34,5.1-10.92a2.74,2.74,0,0,1,2.45-1.64h36.42c-.17,2.71-.17,5.44-.56,8.1a42.47,42.47,0,0,1-8.21,19.65c-7.17,9.5-16.56,15.41-28.46,17-9.78,1.28-18.88-.63-26.85-6.65A31.5,31.5,0,0,1,55,47.3C53.71,36.37,56.89,26.64,63.49,18A44.25,44.25,0,0,1,91.5.73C100.88-1,109.86.17,118,5.59a31.67,31.67,0,0,1,11.58,14.14C129.92,20.56,129.51,21.06,128.38,21.33Z" transform="translate(0)"/><path class="a" d="M161.42,76.66c-9.15-.17-17.41-2.8-24.36-8.8a31.34,31.34,0,0,1-10.8-19.31c-1.79-11.28,1.33-21.29,8.15-30.21,7.31-9.58,16.12-14.61,28-16.73,10.18-1.82,19.8-.77,28.47,5.15,7.92,5.41,12.84,12.69,14.08,22.27,1.74,13.45-2.21,24.48-11.51,33.92a45.26,45.26,0,0,1-24,12.78C166.79,76.25,164.09,76.36,161.42,76.66Zm23.86-40.43c-.11-1.3-.11-2.33-.29-3.32-1.78-9.89-10.88-15.46-20.41-13.33-9.35,2.08-15.31,8-17.48,17.38a16.47,16.47,0,0,0,9.17,18.88,18.28,18.28,0,0,0,16.32-.61C180.45,51.25,184.76,44.83,185.28,36.23Z" transform="translate(0)"/><text class="b" transform="translate(125.76 76.5)">json-t<tspan class="c" x="86.25" y="0">r</tspan><tspan x="97.85" y="0">ansl</tspan><tspan class="d" x="157.89" y="0">a</tspan><tspan class="e" x="175.1" y="0">t</tspan><tspan x="186.8" y="0">e</tspan></text></svg>