<svg xmlns="http://www.w3.org/2000/svg" viewBox="0 0 400.79 83.89"><title>Fichier 4</title><path d="M15.41,23.1c-.37,0-.48-.24-.26-.53l2.09-2.66a1.58,1.58,0,0,1,1.09-.53l35.74,0c.37,0,.5.26.3.57l-1.66,2.59a1.4,1.4,0,0,1-1,.57Z" transform="translate(0)" style="fill:#02a6d2"/><path d="M.37,32.3c-.37,0-.48-.24-.25-.53L2.21,29.1a1.54,1.54,0,0,1,1.08-.53l45.64,0a.46.46,0,0,1,.46.64l-.81,2.45a1,1,0,0,1-.88.63Z" transform="translate(0)" style="fill:#02a6d2"/><path d="M24.6,41.47c-.37,0-.52-.26-.34-.58l1.42-2.55a1.28,1.28,0,0,1,1-.59l20,0a.6.6,0,0,1,.61.67l-.23,2.39a.75.75,0,0,1-.73.67Z" transform="translate(0)" style="fill:#02a6d2"/><path d="M128.38,21.33c-6.28,1.56-10.59,2.85-16.77,4.4-1.53.38-1.64.53-2.93-1A13.07,13.07,0,0,0,104,21c-6.3-3.1-12.41-2.24-18,1.46a21.4,21.4,0,0,0-10.23,19A15.71,15.71,0,0,0,89.22,57.2c6.76.94,12.48-1.49,17-6.57,1-1.06,1.72-2.28,2.74-3.66H89.71c-2.09,0-2.57-1.28-1.86-3,1.26-3.06,3.7-8.34,5.1-10.92a2.74,2.74,0,0,1,2.45-1.64h36.42c-.17,2.71-.17,5.44-.56,8.1a42.47,42.47,0,0,1-8.21,19.65c-7.17,9.5-16.56,15.41-28.46,17-9.78,1.28-18.88-.63-26.85-6.65A31.5,31.5,0,0,1,55,47.3C53.71,36.37,56.89,26.64,63.49,18A44.25,44.25,0,0,1,91.5.73C100.88-1,109.86.17,118,5.59a31.67,31.67,0,0,1,11.58,14.14C129.92,20.56,129.51,21.06,128.38,21.33Z" transform="translate(0)" style="fill:#02a6d2"/><path d="M161.42,76.66c-9.15-.17-17.41-2.8-24.36-8.8a31.34,31.34,0,0,1-10.8-19.31c-1.79-11.28,1.33-21.29,8.15-30.21,7.31-9.58,16.12-14.61,28-16.73,10.18-1.82,19.8-.77,28.47,5.15,7.92,5.41,12.84,12.69,14.08,22.27,1.74,13.45-2.21,24.48-11.51,33.92a45.26,45.26,0,0,1-24,12.78C166.79,76.25,164.09,76.36,161.42,76.66Zm23.86-40.43c-.11-1.3-.11-2.33-.29-3.32-1.78-9.89-10.88-15.46-20.41-13.33-9.35,2.08-15.31,8-17.48,17.38a16.47,16.47,0,0,0,9.17,18.88,18.28,18.28,0,0,0,16.32-.61C180.45,51.25,184.76,44.83,185.28,36.23Z" transform="translate(0)" style="fill:#02a6d2"/><path d="M140.53,58.86V76.19a9.52,9.52,0,0,1-.53,3.28,6.59,6.59,0,0,1-1.51,2.41,6.36,6.36,0,0,1-2.42,1.5,9.54,9.54,0,0,1-3.22.51,13.26,13.26,0,0,1-2.54-.24,11.45,11.45,0,0,1-2.25-.66V80.07a10.32,10.32,0,0,0,1.17.51q.63.23,1.29.39t1.32.24a11.77,11.77,0,0,0,1.3.08A4,4,0,0,0,136.29,80a5.41,5.41,0,0,0,1.14-3.73V61.39h-8.65V58.86Zm-1.85-7.4a2.47,2.47,0,0,1,.95.18,2.24,2.24,0,0,1,.76.52,2.35,2.35,0,0,1,.51.77,2.31,2.31,0,0,1,.19.93,2.23,2.23,0,0,1-.19.94,2.35,2.35,0,0,1-.51.77,2.39,2.39,0,0,1-.76.52,2.6,2.6,0,0,1-1.9,0,2.39,2.39,0,0,1-.76-.52,2.35,2.35,0,0,1-.51-.77,2.23,2.23,0,0,1-.19-.94,2.31,2.31,0,0,1,.19-.93,2.35,2.35,0,0,1,.51-.77,2.24,2.24,0,0,1,.76-.52A2.47,2.47,0,0,1,138.68,51.46Z" transform="translate(0)" style="fill:#211e1f"/><path d="M162.34,71.69a4,4,0,0,1-.32,1.67,4.25,4.25,0,0,1-.86,1.31,5.28,5.28,0,0,1-1.26,1,7.88,7.88,0,0,1-1.54.67,9.54,9.54,0,0,1-1.68.39,12.22,12.22,0,0,1-1.69.12,30.33,30.33,0,0,1-3.29-.16,20.66,20.66,0,0,1-2.95-.51V73.34a24.61,24.61,0,0,0,3.08.67,20.85,20.85,0,0,0,3,.23,6.8,6.8,0,0,0,3.25-.6,1.87,1.87,0,0,0,1.06-1.71,2.11,2.11,0,0,0-.17-.85,1.9,1.9,0,0,0-.61-.72,5.37,5.37,0,0,0-1.36-.71c-.61-.25-1.46-.53-2.52-.84a21,21,0,0,1-2.21-.8,7.71,7.71,0,0,1-1.75-1.07,4.58,4.58,0,0,1-1.16-1.44,4.25,4.25,0,0,1-.42-2,4.51,4.51,0,0,1,.35-1.62,4.28,4.28,0,0,1,1.16-1.63A6.36,6.36,0,0,1,152.73,59a10.61,10.61,0,0,1,3.51-.5c.69,0,1.46,0,2.3.11a23.83,23.83,0,0,1,2.64.4v2.72a25.81,25.81,0,0,0-2.73-.51,16.37,16.37,0,0,0-2.24-.17,9.46,9.46,0,0,0-1.93.17,3.9,3.9,0,0,0-1.26.49,1.78,1.78,0,0,0-.7.72,2,2,0,0,0,0,1.75A2,2,0,0,0,153,65a7.39,7.39,0,0,0,1.4.73c.6.24,1.37.5,2.34.78a17.25,17.25,0,0,1,2.63,1,6.52,6.52,0,0,1,1.74,1.11,3.49,3.49,0,0,1,1,1.39A5.07,5.07,0,0,1,162.34,71.69Z" transform="translate(0)" style="fill:#211e1f"/><path d="M183.52,67.54a11.6,11.6,0,0,1-.58,3.77,8.32,8.32,0,0,1-1.67,2.94,7.46,7.46,0,0,1-2.65,1.89,8.71,8.71,0,0,1-3.55.68,9.29,9.29,0,0,1-3.4-.59,6.6,6.6,0,0,1-2.55-1.73,7.58,7.58,0,0,1-1.6-2.83,12.39,12.39,0,0,1-.56-3.88,11.72,11.72,0,0,1,.58-3.76,8.64,8.64,0,0,1,1.67-2.92,7.59,7.59,0,0,1,2.66-1.89,8.85,8.85,0,0,1,3.55-.68,9.32,9.32,0,0,1,3.4.59,6.85,6.85,0,0,1,2.55,1.72,7.62,7.62,0,0,1,1.6,2.82A12.43,12.43,0,0,1,183.52,67.54Zm-3.13.14a10.2,10.2,0,0,0-.36-2.86,5.76,5.76,0,0,0-1-2,4.27,4.27,0,0,0-1.62-1.23,5.44,5.44,0,0,0-2.14-.41,4.76,4.76,0,0,0-2.34.54,4.5,4.5,0,0,0-1.6,1.43,6.25,6.25,0,0,0-.92,2.08,10.61,10.61,0,0,0-.29,2.49,10.28,10.28,0,0,0,.36,2.87,5.75,5.75,0,0,0,1,2,4.22,4.22,0,0,0,1.62,1.23,5.24,5.24,0,0,0,2.14.42,4.77,4.77,0,0,0,2.35-.54,4.68,4.68,0,0,0,1.6-1.43,6,6,0,0,0,.91-2.08A10.27,10.27,0,0,0,180.39,67.68Z" transform="translate(0)" style="fill:#211e1f"/><path d="M188,58.86h2.73l.12,2.84a13.52,13.52,0,0,1,1.49-1.52,8.16,8.16,0,0,1,1.42-1,5.12,5.12,0,0,1,1.41-.52,7.34,7.34,0,0,1,1.5-.15,5.18,5.18,0,0,1,4.12,1.61,7.21,7.21,0,0,1,1.4,4.84V76.5h-3.06V65.24a5,5,0,0,0-.77-3.07,2.76,2.76,0,0,0-2.31-1,3.75,3.75,0,0,0-1.1.16,4.1,4.1,0,0,0-1.11.58A9.24,9.24,0,0,0,192.53,63c-.45.47-1,1.05-1.52,1.76V76.5H188Z" transform="translate(0)" style="fill:#211e1f"/><path d="M220.08,68.37H209.57V65.48h10.51Z" transform="translate(0)" style="fill:#211e1f"/><path d="M241.76,76.26a16.34,16.34,0,0,1-2.15.38c-.73.07-1.48.11-2.25.11a7.11,7.11,0,0,1-5-1.5,6,6,0,0,1-1.64-4.62V61.42h-4.94V58.86h4.94V54l3.06-.79v5.65h7.93v2.56h-7.93v9a3.73,3.73,0,0,0,1,2.84,4.28,4.28,0,0,0,3,.94,14.07,14.07,0,0,0,1.85-.14,16,16,0,0,0,2.09-.41Z" transform="translate(0)" style="fill:#211e1f"/><path d="M248.05,58.86h2.8l.08,3.25A11.55,11.55,0,0,1,254,59.38a6.29,6.29,0,0,1,3.07-.84,5,5,0,0,1,4.15,1.77,7.94,7.94,0,0,1,1.31,5.28h-3.09a5.8,5.8,0,0,0-.68-3.37,2.42,2.42,0,0,0-2.13-1,3.61,3.61,0,0,0-1.24.22,4.84,4.84,0,0,0-1.29.7,11.32,11.32,0,0,0-1.39,1.24,21.39,21.39,0,0,0-1.58,1.83V76.5h-3.1Z" transform="translate(0)" style="fill:#211e1f"/><path d="M278.46,76.5l-.07-2.37a9.54,9.54,0,0,1-2.93,2.06,7.91,7.91,0,0,1-3.12.63,7.61,7.61,0,0,1-2.58-.39A4.86,4.86,0,0,1,268,75.37a4.18,4.18,0,0,1-1-1.59,6.06,6.06,0,0,1-.32-2,4.91,4.91,0,0,1,2-4.15,9.49,9.49,0,0,1,5.84-1.51h3.66V64.59a3.31,3.31,0,0,0-1-2.51,4.33,4.33,0,0,0-3.06-.94,12.72,12.72,0,0,0-2.95.34,20.44,20.44,0,0,0-3,.94V59.66c.38-.14.81-.27,1.29-.41s1-.25,1.5-.36,1.08-.19,1.65-.25a14.5,14.5,0,0,1,1.74-.1,11.16,11.16,0,0,1,2.89.35A6,6,0,0,1,279.37,60a4.81,4.81,0,0,1,1.36,1.81,6.37,6.37,0,0,1,.47,2.57V76.5Zm-.33-8h-3.89a7.61,7.61,0,0,0-2,.23,3.69,3.69,0,0,0-1.35.65,2.63,2.63,0,0,0-.78,1,3.32,3.32,0,0,0-.26,1.33,3.13,3.13,0,0,0,.16,1,2.3,2.3,0,0,0,.51.83,2.48,2.48,0,0,0,.92.57,3.91,3.91,0,0,0,1.37.21,5.71,5.71,0,0,0,2.41-.64,11.78,11.78,0,0,0,2.88-2Z" transform="translate(0)" style="fill:#211e1f"/><path d="M286.92,58.86h2.72l.12,2.84a13.54,13.54,0,0,1,1.5-1.52,8.11,8.11,0,0,1,1.41-1,5.31,5.31,0,0,1,1.42-.52,7.31,7.31,0,0,1,1.49-.15,5.16,5.16,0,0,1,4.12,1.61A7.15,7.15,0,0,1,301.1,65V76.5H298V65.24a4.94,4.94,0,0,0-.77-3.07,2.74,2.74,0,0,0-2.3-1,3.71,3.71,0,0,0-1.1.16,4.14,4.14,0,0,0-1.12.58A9.86,9.86,0,0,0,291.5,63,22.08,22.08,0,0,0,290,64.8V76.5h-3.06Z" transform="translate(0)" style="fill:#211e1f"/><path d="M320.68,71.69a4.21,4.21,0,0,1-.31,1.67,4.44,4.44,0,0,1-.86,1.31,5.55,5.55,0,0,1-1.27,1,7.88,7.88,0,0,1-1.54.67,9.33,9.33,0,0,1-1.68.39,12.08,12.08,0,0,1-1.68.12,30.4,30.4,0,0,1-3.3-.16,20.53,20.53,0,0,1-2.94-.51V73.34a24.47,24.47,0,0,0,3.07.67,21,21,0,0,0,3,.23,6.84,6.84,0,0,0,3.26-.6,1.88,1.88,0,0,0,1-1.71,2.11,2.11,0,0,0-.17-.85,2,2,0,0,0-.6-.72,5.65,5.65,0,0,0-1.37-.71,26.14,26.14,0,0,0-2.52-.84,20.75,20.75,0,0,1-2.2-.8,7.29,7.29,0,0,1-1.75-1.07,4.45,4.45,0,0,1-1.16-1.44,4.25,4.25,0,0,1-.42-2,4.48,4.48,0,0,1,.34-1.62,4.43,4.43,0,0,1,1.17-1.63A6.31,6.31,0,0,1,311.07,59a10.69,10.69,0,0,1,3.51-.5c.7,0,1.46,0,2.31.11a24,24,0,0,1,2.63.4v2.72a25.81,25.81,0,0,0-2.73-.51,16.37,16.37,0,0,0-2.24-.17,9.6,9.6,0,0,0-1.93.17,3.9,3.9,0,0,0-1.26.49,1.8,1.8,0,0,0-.91,1.61,2,2,0,0,0,.19.86,2,2,0,0,0,.68.74,7.39,7.39,0,0,0,1.4.73q.9.36,2.34.78a17.82,17.82,0,0,1,2.64,1,6.86,6.86,0,0,1,1.74,1.11,3.57,3.57,0,0,1,.95,1.39A4.85,4.85,0,0,1,320.68,71.69Z" transform="translate(0)" style="fill:#211e1f"/><path d="M332.51,54.18h-5.22V51.67h8.32V74h5.25V76.5H326.71V74h5.8Z" transform="translate(0)" style="fill:#211e1f"/><path d="M357.63,76.5l-.07-2.37a9.5,9.5,0,0,1-2.92,2.06,7.91,7.91,0,0,1-3.12.63,7.63,7.63,0,0,1-2.59-.39,4.73,4.73,0,0,1-1.76-1.06,4,4,0,0,1-1-1.59,5.81,5.81,0,0,1-.33-2,4.91,4.91,0,0,1,2-4.15,9.51,9.51,0,0,1,5.84-1.51h3.66V64.59a3.27,3.27,0,0,0-1-2.51,4.33,4.33,0,0,0-3.06-.94,12.72,12.72,0,0,0-2.95.34,20.44,20.44,0,0,0-3,.94V59.66c.38-.14.82-.27,1.29-.41s1-.25,1.5-.36,1.08-.19,1.65-.25a14.55,14.55,0,0,1,1.75-.1,11.14,11.14,0,0,1,2.88.35A6,6,0,0,1,358.54,60a4.81,4.81,0,0,1,1.36,1.81,6.37,6.37,0,0,1,.48,2.57V76.5Zm-.33-8h-3.89a7.48,7.48,0,0,0-2,.23,3.75,3.75,0,0,0-1.36.65,2.63,2.63,0,0,0-.78,1,3.32,3.32,0,0,0-.25,1.33,3.12,3.12,0,0,0,.15,1,2.3,2.3,0,0,0,.51.83,2.48,2.48,0,0,0,.92.57,3.91,3.91,0,0,0,1.37.21,5.79,5.79,0,0,0,2.42-.64,11.94,11.94,0,0,0,2.87-2Z" transform="translate(0)" style="fill:#211e1f"/><path d="M380.31,76.26a16.34,16.34,0,0,1-2.15.38c-.73.07-1.48.11-2.25.11a7.11,7.11,0,0,1-5-1.5,6,6,0,0,1-1.64-4.62V61.42h-4.94V58.86h4.94V54l3.06-.79v5.65h7.93v2.56h-7.93v9a3.73,3.73,0,0,0,1,2.84,4.28,4.28,0,0,0,3,.94,14.07,14.07,0,0,0,1.85-.14,15.69,15.69,0,0,0,2.09-.41Z" transform="translate(0)" style="fill:#211e1f"/><path d="M400.79,66.75c0,.43,0,.8,0,1.09s0,.57,0,.82H388.33a5.49,5.49,0,0,0,1.51,4.16,6,6,0,0,0,4.36,1.45c.51,0,1,0,1.54-.06s1-.1,1.5-.17l1.38-.23c.44-.09.84-.19,1.22-.29V76a22.58,22.58,0,0,1-2.82.57,23.08,23.08,0,0,1-3.26.22,11.11,11.11,0,0,1-3.91-.61,6.7,6.7,0,0,1-2.68-1.79,7.37,7.37,0,0,1-1.54-2.86,13.38,13.38,0,0,1-.5-3.84,11.34,11.34,0,0,1,.53-3.53,8.83,8.83,0,0,1,1.57-2.92,7.48,7.48,0,0,1,2.52-2,7.57,7.57,0,0,1,3.39-.74,8.56,8.56,0,0,1,3.27.58,6.58,6.58,0,0,1,2.4,1.64,7.09,7.09,0,0,1,1.48,2.59A10.9,10.9,0,0,1,400.79,66.75Zm-3.18-.44a6.7,6.7,0,0,0-.23-2.15,4.63,4.63,0,0,0-.87-1.68,4,4,0,0,0-1.47-1.1,4.86,4.86,0,0,0-2-.4,4.15,4.15,0,0,0-3.25,1.48,5.67,5.67,0,0,0-1,1.69,7.59,7.59,0,0,0-.45,2.16Z" transform="translate(0)" style="fill:#211e1f"/></svg>